#!OML:ASF C:\ViconDB\ViconDB\414\Spring2016\041811\Spring2016.ASF
:FULLY-SPECIFIED
:DEGREES
292
root 5.28111 20.8026 -31.9375 -174.664 -6.61749 179.418
lowerback 12.0512 1.23193 -2.591
upperback 1.37948 1.20249 0.913604
thorax -5.38709 0.594854 2.22863
lowerneck -14.9862 -4.44855 -14.4977
upperneck 18.8687 -6.90045 16.1924
head 9.48334 -2.91541 7.23844
rclavicle -2.127e-014 -5.76476e-015
rhumerus -15.6175 6.24858 -61.0852
rradius 108.969
rwrist -9.11865
rhand -34.4878 -21.4433
rfingers 7.12502
rthumb -7.65045 -51.2849
lclavicle -2.127e-014 -5.76476e-015
lhumerus -12.5822 -8.24725 45.4794
lradius 98.0424
lwrist 10.2226
lhand -33.2138 12.8362
lfingers 7.12502
lthumb -6.42061 42.7189
rfemur -20.9278 -21.1898 19.8466
rtibia 20.7107
rfoot -25.8781 6.49593
rtoes -8.4694
lfemur -15.8463 -5.6029 -10.3445
ltibia 8.84496
lfoot 6.00289 12.7356
ltoes -8.31656
293
root 5.27331 20.626 -32.1223 -174.76 -6.59159 179.322
lowerback 12.9443 1.26717 -2.54259
upperback 1.58729 1.19853 0.819967
thorax -5.66082 0.578764 2.09568
lowerneck -15.1406 -4.54371 -14.6452
upperneck 18.5121 -6.95046 16.3977
head 9.41486 -2.91336 7.32163
rclavicle -4.57205e-015 -3.97569e-016
rhumerus -17.0084 6.37905 -61.9855
rradius 109.131
rwrist -10.8523
rhand -34.5354 -20.2269
rfingers 7.12502
rthumb -7.69634 -50.0668
lclavicle -4.57205e-015 -3.97569e-016
lhumerus -13.8722 -8.6089 46.5146
lradius 98.4124
lwrist 9.85855
lhand -32.9938 12.6263
lfingers 7.12502
lthumb -6.20826 42.5153
rfemur -22.1831 -21.3152 20.0396
rtibia 20.9965
rfoot -25.7186 6.19763
rtoes -7.70781
lfemur -17.2631 -5.2148 -10.2728
ltibia 9.52759
lfoot 5.42552 12.998
ltoes -8.47381
294
root 5.26805 20.4217 -32.304 -174.944 -6.52013 179.504
lowerback 13.9086 1.31793 -2.31752
upperback 1.82375 1.24005 0.841598
thorax -5.94268 0.578547 1.97549
lowerneck -15.2768 -4.63715 -14.712
upperneck 18.0929 -6.97187 16.4694
head 9.30863 -2.90215 7.34117
rclavicle -2.89729e-014 -3.97569e-016
rhumerus -18.5247 6.67245 -62.9056
rradius 109.099
rwrist -10.3329
rhand -34.5736 -20.2347
rfingers 7.12502
rthumb -7.73323 -50.0733
lclavicle -2.89729e-014 -3.97569e-016
lhumerus -15.3389 -8.76704 47.8186
lradius 98.8318
lwrist 9.60719
lhand -32.9594 12.5938
lfingers 7.12502
lthumb -6.17503 42.4838
rfemur -23.4706 -21.3043 20.5244
rtibia 21.6174
rfoot -25.5302 5.98245
rtoes -7.38601
lfemur -18.9891 -4.74477 -9.89311
ltibia 10.9755
lfoot 5.09041 13.1916
ltoes -8.33974
295
root 5.26571 20.1966 -32.4854 -175.175 -6.42674 179.513
lowerback 14.9222 1.37504 -2.37985
upperback 2.10366 1.2387 0.868987
thorax -6.20692 0.559353 2.03241
lowerneck -15.4728 -4.69163 -14.7492
upperneck 17.664 -6.91543 16.4758
head 9.19302 -2.85426 7.34146
rclavicle -3.77691e-014 -4.17448e-015
rhumerus -19.963 7.15873 -63.7843
rradius 109.055
rwrist -9.64415
rhand -34.8975 -20.6433
rfingers 7.12502
rthumb -8.0458 -50.4701
lclavicle -3.77691e-014 -4.17448e-015
lhumerus -16.8601 -8.74547 49.201
lradius 99.1896
lwrist 9.55401
lhand -33.0024 12.5507
lfingers 7.12502
lthumb -6.21648 42.4395
rfemur -24.7418 -20.9271 20.7013
rtibia 22.6964
rfoot -25.3922 5.94331
rtoes -6.30546
lfemur -20.8563 -3.30083 -10.0381
ltibia 13.0447
lfoot 5.23502 11.9563
ltoes -8.09633
296
root 5.26091 19.9467 -32.6655 -175.39 -6.40313 179.484
lowerback 15.9668 1.41959 -2.29779
upperback 2.37015 1.23089 0.769895
thorax -6.49242 0.531218 1.8746
lowerneck -15.6163 -4.77987 -14.7323
upperneck 17.15 -6.95957 16.6217
head 9.06143 -2.84415 7.36703
rclavicle 2.80286e-014 1.59028e-015
rhumerus -21.5789 7.03551 -64.9361
rradius 108.984
rwrist -8.96562
rhand -34.7838 -20.3291
rfingers 7.12502
rthumb -7.9361 -50.1601
lclavicle 2.80286e-014 1.59028e-015
lhumerus -18.2773 -8.8269 50.4909
lradius 99.3831
lwrist 9.28139
lhand -33.1549 12.3871
lfingers 7.12502
lthumb -6.36377 42.2715
rfemur -26.2178 -20.7212 20.8249
rtibia 24.3402
rfoot -25.5918 5.6431
rtoes -6.01394
lfemur -22.9213 -1.44116 -10.4176
ltibia 15.5246
lfoot 5.84147 9.70101
ltoes -8.40692
297
root 5.25762 19.668 -32.8444 -175.755 -6.37147 179.65
lowerback 17.1996 1.46603 -2.08522
upperback 2.64939 1.24074 0.752239
thorax -6.86266 0.505113 1.72415
lowerneck -15.7572 -4.85973 -14.7287
upperneck 16.6454 -6.99129 16.7646
head 8.93143 -2.83122 7.39606
rclavicle -8.44835e-015 -3.97569e-015
rhumerus -23.1842 7.06596 -66.0644
rradius 108.794
rwrist -8.2277
rhand -35.0414 -20.088
rfingers 7.12502
rthumb -8.18469 -49.9095
lclavicle -8.44835e-015 -3.97569e-015
lhumerus -19.8293 -8.85218 51.8794
lradius 99.6644
lwrist 9.29271
lhand -33.3599 12.698
lfingers 7.12502
lthumb -6.56166 42.5764
rfemur -27.693 -20.2959 21.0443
rtibia 26.5663
rfoot -25.9166 5.11453
rtoes -5.5131
lfemur -24.997 0.484759 -10.6515
ltibia 18.3742
lfoot 6.68192 6.71508
ltoes -9.17909
298
root 5.25146 19.3646 -33.0224 -176.233 -6.41024 179.789
lowerback 18.4497 1.45382 -1.88268
upperback 3.01052 1.15903 0.732148
thorax -7.14443 0.426026 1.59994
lowerneck -15.8706 -4.89747 -14.6615
upperneck 16.0654 -6.96901 16.8891
head 8.75908 -2.79309 7.41162
rclavicle 2.32081e-014 -8.15017e-015
rhumerus -24.6334 7.17239 -67.0904
rradius 108.658
rwrist -8.12654
rhand -35.1042 -20.0339
rfingers 7.12502
rthumb -8.24537 -49.853
lclavicle 2.32081e-014 -8.15017e-015
lhumerus -21.3851 -9.00499 52.9687
lradius 99.9051
lwrist 9.13771
lhand -33.5101 13.2678
lfingers 7.12502
lthumb -6.70663 43.1416
rfemur -29.2466 -19.9804 21.1212
rtibia 29.377
rfoot -26.5122 4.43715
rtoes -4.73142
lfemur -27.1017 2.31551 -10.9821
ltibia 21.5693
lfoot 7.77212 3.68853
ltoes -9.50175
299
root 5.24828 19.0335 -33.202 -176.716 -6.43921 179.971
lowerback 19.7202 1.48006 -1.71906
upperback 3.32303 1.128 0.780723
thorax -7.4876 0.373458 1.56131
lowerneck -15.8541 -4.94931 -14.7525
upperneck 15.467 -6.95667 17.0699
head 8.56759 -2.77235 7.47484
rclavicle 3.67752e-015 -7.15625e-015
rhumerus -26.2301 7.22339 -68.0401
rradius 108.334
rwrist -7.59425
rhand -35.2773 -19.576
rfingers 7.12502
rthumb -8.41235 -49.3884
lclavicle 3.67752e-015 -7.15625e-015
lhumerus -22.9464 -8.93764 54.435
lradius 99.9795
lwrist 9.2116
lhand -33.2355 13.1124
lfingers 7.12502
lthumb -6.44152 42.9944
rfemur -30.913 -19.519 21.2291
rtibia 32.5866
rfoot -27.0897 3.65819
rtoes -4.9241
lfemur -29.4134 4.18708 -11.2941
ltibia 25.2799
lfoot 8.6391 0.263825
ltoes -10.0622
300
root 5.24763 18.6783 -33.3902 -177.31 -6.50915 180.096
lowerback 20.9601 1.51723 -1.60472
upperback 3.67564 1.08856 0.770036
thorax -7.76286 0.311805 1.4915
lowerneck -15.6712 -4.97666 -14.7411
upperneck 14.7756 -6.97107 17.3226
head 8.3207 -2.76562 7.53945
rclavicle 2.79292e-014 -7.35503e-015
rhumerus -27.9258 7.04031 -69.197
rradius 107.909
rwrist -6.84736
rhand -35.4432 -19.2632
rfingers 7.12502
rthumb -8.57246 -49.0692
lclavicle 2.79292e-014 -7.35503e-015
lhumerus -24.4025 -8.49051 55.7396
lradius 99.4622
lwrist 7.21103
lhand -32.2875 13.2129
lfingers 7.12502
lthumb -5.52628 43.1209
rfemur -32.62 -19.13 21.2488
rtibia 36.341
rfoot -27.7838 2.37576
rtoes -8.40416
lfemur -31.7387 5.78412 -11.6316
ltibia 29.4608
lfoot 9.11389 -3.15511
ltoes -9.70284
301
root 5.23937 18.2658 -33.596 -178.012 -6.4377 180.272
lowerback 22.188 1.56936 -1.43897
upperback 3.98538 1.08471 0.791922
thorax -8.07177 0.26629 1.41925
lowerneck -15.3296 -4.96251 -14.8126
upperneck 14.1983 -6.93255 17.5137
head 8.07435 -2.75259 7.60808
rclavicle 3.926e-015 -5.06901e-015
rhumerus -29.7383 6.93329 -70.3094
rradius 107.299
rwrist -6.06075
rhand -35.6722 -19.0431
rfingers 7.12502
rthumb -8.79349 -48.8399
lclavicle 3.926e-015 -5.06901e-015
lhumerus -26.0301 -8.03123 57.1037
lradius 98.7984
lwrist 6.60252
lhand -31.6678 12.7223
lfingers 7.12502
lthumb -4.928 42.645
rfemur -33.8964 -18.2126 20.9266
rtibia 40.4189
rfoot -25.5087 -0.346794
rtoes -8.33027
lfemur -34.1312 7.46072 -11.966
ltibia 34.1779
lfoot 10.1287 -7.05296
ltoes -2.07034
